<?xml version="1.0" encoding="UTF-8"?>
<svg version="1.1" xmlns="http://www.w3.org/2000/svg" width="266" height="60">
<path d="M0 0 C0.81082031 0.24814453 1.62164062 0.49628906 2.45703125 0.75195312 C8.33682205 2.6616703 8.33682205 2.6616703 10.91796875 5.18359375 C12.22400586 7.91827554 12.07857687 10.20170597 11.875 13.1875 C12.49375 13.290625 13.1125 13.39375 13.75 13.5 C15.875 14.1875 15.875 14.1875 17.875 17.1875 C18.24741915 22.7737873 17.45449997 26.79861775 15.875 32.1875 C15.82387152 33.87473983 15.78279528 35.56230428 15.75 37.25 C15.49372347 40.1795058 15.33557102 41.67614807 13.3515625 43.87890625 C11.375 45.3125 11.375 45.3125 9.1875 46.671875 C6.58220393 48.37940013 4.58269594 50.37013528 2.375 52.5625 C-0.59467889 55.2598727 -2.43078206 56.7127361 -6.5 56.75 C-10.125 56.1875 -10.125 56.1875 -13.125 55.1875 C-13.455 55.5175 -13.785 55.8475 -14.125 56.1875 C-20.72347997 57.11360245 -20.72347997 57.11360245 -24.1171875 54.87109375 C-25.455837 53.66953486 -26.76068256 52.42958252 -28.03515625 51.16015625 C-30.21401934 49.1034724 -32.47975188 47.6714264 -35 46.0625 C-39.10335762 42.97440612 -39.87700014 40.47254383 -40.625 35.4375 C-40.79936584 33.35479692 -40.96728959 31.27153047 -41.125 29.1875 C-41.455 28.1975 -41.785 27.2075 -42.125 26.1875 C-42.26720279 24.52482126 -42.34520567 22.8559827 -42.375 21.1875 C-42.40078125 20.32125 -42.4265625 19.455 -42.453125 18.5625 C-42.125 16.1875 -42.125 16.1875 -40.796875 14.375 C-39.125 13.1875 -39.125 13.1875 -36.125 13.1875 C-36.228125 12.115 -36.33125 11.0425 -36.4375 9.9375 C-36.125 6.1875 -36.125 6.1875 -34.015625 4.0859375 C-30.8820558 2.02794476 -28.16817356 1.05688042 -24.5625 0.0625 C-20.15600298 -1.1161633 -20.15600298 -1.1161633 -16.03515625 -2.9921875 C-11.329519 -5.01301331 -4.66249754 -1.50801486 0 0 Z M-23.5 1.4375 C-24.17289063 1.64246094 -24.84578125 1.84742188 -25.5390625 2.05859375 C-29.6405905 3.39078296 -32.50088532 4.70680903 -35.125 8.1875 C-34.98474801 10.89455512 -34.98474801 10.89455512 -34.125 13.1875 C-27.39399933 14.95300837 -21.09374933 15.7226004 -14.125 15.1875 C-12.70922523 14.00325674 -12.70922523 14.00325674 -13.0625 10.625 C-13.0934375 8.9234375 -13.0934375 8.9234375 -13.125 7.1875 C-13.785 6.8575 -14.445 6.5275 -15.125 6.1875 C-15.125 8.8275 -15.125 11.4675 -15.125 14.1875 C-15.785 14.1875 -16.445 14.1875 -17.125 14.1875 C-16.135 9.2375 -15.145 4.2875 -14.125 -0.8125 C-17.40401266 -0.8125 -20.40745426 0.43593689 -23.5 1.4375 Z M-13.125 -0.8125 C-13.125 0.1775 -13.125 1.1675 -13.125 2.1875 C-12.465 2.1875 -11.805 2.1875 -11.125 2.1875 C-11.455 1.1975 -11.785 0.2075 -12.125 -0.8125 C-12.455 -0.8125 -12.785 -0.8125 -13.125 -0.8125 Z M-10.125 -0.8125 C-9.81663768 1.31310437 -9.50318386 3.43797065 -9.1875 5.5625 C-9.01347656 6.74585938 -8.83945312 7.92921875 -8.66015625 9.1484375 C-8.29037214 12.09452381 -8.29037214 12.09452381 -7.125 14.1875 C-7.785 14.1875 -8.445 14.1875 -9.125 14.1875 C-9.455 10.5575 -9.785 6.9275 -10.125 3.1875 C-10.455 3.1875 -10.785 3.1875 -11.125 3.1875 C-11.125 7.1475 -11.125 11.1075 -11.125 15.1875 C-8.155 15.1875 -5.185 15.1875 -2.125 15.1875 C-2.125 23.4375 -2.125 31.6875 -2.125 40.1875 C-2.785 40.1875 -3.445 40.1875 -4.125 40.1875 C-4.125 37.2175 -4.125 34.2475 -4.125 31.1875 C-4.455 31.1875 -4.785 31.1875 -5.125 31.1875 C-5.125 33.8275 -5.125 36.4675 -5.125 39.1875 C-7.105 39.1875 -9.085 39.1875 -11.125 39.1875 C-11.125 40.1775 -11.125 41.1675 -11.125 42.1875 C-10.135 42.1875 -9.145 42.1875 -8.125 42.1875 C-9.115 45.8175 -10.105 49.4475 -11.125 53.1875 C-8.38557712 55.45567446 -8.38557712 55.45567446 -5.6875 55.015625 C-2.8152907 54.08741102 -1.32819592 52.98078654 0.875 50.9375 C1.555625 50.31230469 2.23625 49.68710937 2.9375 49.04296875 C5.28864924 46.79136413 7.60868423 44.52463814 9.875 42.1875 C4.925 40.2075 4.925 40.2075 -0.125 38.1875 C1.20833333 38.1875 2.54166667 38.1875 3.875 38.1875 C3.875 37.5275 3.875 36.8675 3.875 36.1875 C1.9149719 34.55073743 1.9149719 34.55073743 -0.125 33.1875 C1.855 33.8475 3.835 34.5075 5.875 35.1875 C5.05 34.383125 4.225 33.57875 3.375 32.75 C0.875 30.1875 0.875 30.1875 0.875 29.1875 C4.875 32.1875 8.875 35.1875 12.875 38.1875 C15.84282864 27.83656865 15.84282864 27.83656865 15.875 17.1875 C13.53750834 15.03147306 13.53750834 15.03147306 10.875 14.1875 C10.359375 14.909375 9.84375 15.63125 9.3125 16.375 C6.44117403 19.68806842 3.5043662 21.74465737 -0.125 24.1875 C-0.455 21.2175 -0.785 18.2475 -1.125 15.1875 C4.32 14.1975 4.32 14.1975 9.875 13.1875 C10.29767902 9.10572742 10.29767902 9.10572742 8.61401367 5.57495117 C6.69318695 4.04244264 5.22193505 3.4569481 2.86328125 2.80078125 C2.10595703 2.58486328 1.34863281 2.36894531 0.56835938 2.14648438 C-0.21732422 1.93314453 -1.00300781 1.71980469 -1.8125 1.5 C-3.00842773 1.16258789 -3.00842773 1.16258789 -4.22851562 0.81835938 C-6.19154159 0.26589099 -8.15796261 -0.27448869 -10.125 -0.8125 Z M-36.125 14.1875 C-38.83300597 16.22699126 -38.83300597 16.22699126 -41.125 19.1875 C-41.125 21.92431262 -40.83460885 23.59951478 -40.125 26.1875 C-39.87621094 27.21617188 -39.62742188 28.24484375 -39.37109375 29.3046875 C-38.64823203 32.27296027 -37.8967323 35.23161967 -37.125 38.1875 C-36.70089844 37.81238281 -36.27679688 37.43726562 -35.83984375 37.05078125 C-32.72258527 34.33088759 -29.60477158 31.77379792 -26.1875 29.4375 C-24.6715625 28.32375 -24.6715625 28.32375 -23.125 27.1875 C-23.125 26.5275 -23.125 25.8675 -23.125 25.1875 C-25.0077572 23.5123763 -25.0077572 23.5123763 -27.375 21.8125 C-30.548993 19.45793656 -33.38573562 17.03985328 -36.125 14.1875 Z M-20.125 17.1875 C-20.455 18.5075 -20.785 19.8275 -21.125 21.1875 C-19.805 21.5175 -18.485 21.8475 -17.125 22.1875 C-17.125 24.4975 -17.125 26.8075 -17.125 29.1875 C-14.85072666 26.46957233 -14.85072666 26.46957233 -15.3671875 23.92578125 C-15.57601563 23.12527344 -15.78484375 22.32476562 -16 21.5 C-16.20367188 20.69175781 -16.40734375 19.88351563 -16.6171875 19.05078125 C-16.78476562 18.43589844 -16.95234375 17.82101563 -17.125 17.1875 C-18.115 17.1875 -19.105 17.1875 -20.125 17.1875 Z M-15.125 17.1875 C-14.795 18.5075 -14.465 19.8275 -14.125 21.1875 C-12.475 20.8575 -10.825 20.5275 -9.125 20.1875 C-9.125 19.1975 -9.125 18.2075 -9.125 17.1875 C-11.105 17.1875 -13.085 17.1875 -15.125 17.1875 Z M-7.125 17.1875 C-7.455 18.8375 -7.785 20.4875 -8.125 22.1875 C-6.805 22.1875 -5.485 22.1875 -4.125 22.1875 C-4.125 20.5375 -4.125 18.8875 -4.125 17.1875 C-5.115 17.1875 -6.105 17.1875 -7.125 17.1875 Z M-24.125 29.1875 C-26.435 30.8375 -28.745 32.4875 -31.125 34.1875 C-30.135 34.5175 -29.145 34.8475 -28.125 35.1875 C-25.44823453 33.81500037 -25.44823453 33.81500037 -23.125 32.1875 C-23.455 31.1975 -23.785 30.2075 -24.125 29.1875 Z M-8.125 31.1875 C-8.125 33.1675 -8.125 35.1475 -8.125 37.1875 C-7.795 37.1875 -7.465 37.1875 -7.125 37.1875 C-7.125 35.2075 -7.125 33.2275 -7.125 31.1875 C-7.455 31.1875 -7.785 31.1875 -8.125 31.1875 Z M-27.25 36.1875 C-27.86875 36.8475 -28.4875 37.5075 -29.125 38.1875 C-27.475 37.8575 -25.825 37.5275 -24.125 37.1875 C-23.795 36.1975 -23.465 35.2075 -23.125 34.1875 C-25.36862573 33.9590451 -25.36862573 33.9590451 -27.25 36.1875 Z M8.875 37.1875 C8.545 38.1775 8.215 39.1675 7.875 40.1875 C8.865 40.1875 9.855 40.1875 10.875 40.1875 C10.545 39.1975 10.215 38.2075 9.875 37.1875 C9.545 37.1875 9.215 37.1875 8.875 37.1875 Z M-35.125 38.1875 C-35.455 38.8475 -35.785 39.5075 -36.125 40.1875 C-34.805 39.8575 -33.485 39.5275 -32.125 39.1875 C-33.115 38.8575 -34.105 38.5275 -35.125 38.1875 Z M-26.5078125 38.96484375 C-27.41273437 39.34769531 -28.31765625 39.73054688 -29.25 40.125 C-30.16007812 40.50527344 -31.07015625 40.88554688 -32.0078125 41.27734375 C-32.70648438 41.57769531 -33.40515625 41.87804688 -34.125 42.1875 C-32.97981308 43.33268692 -31.83299025 44.47626809 -30.6796875 45.61328125 C-29.57549105 46.73134951 -28.49991283 47.87800327 -27.4453125 49.04296875 C-24.65396823 52.05141757 -22.810117 53.95034412 -18.875 55.3125 C-16.16500564 55.41884806 -16.16500564 55.41884806 -14.37109375 54.06640625 C-12.80770865 52.15195586 -12.80770865 52.15195586 -13.48828125 49.26953125 C-13.80152344 48.19058594 -14.11476563 47.11164062 -14.4375 46 C-14.74300781 44.91332031 -15.04851563 43.82664062 -15.36328125 42.70703125 C-15.61464844 41.87558594 -15.86601562 41.04414062 -16.125 40.1875 C-15.465 39.8575 -14.805 39.5275 -14.125 39.1875 C-16.043125 39.2184375 -16.043125 39.2184375 -18 39.25 C-21.20511282 39.30169537 -23.57944181 38.00952282 -26.5078125 38.96484375 Z " fill="#22631A" transform="translate(42.125,3.8125)"/>
<path d="M0 0 C2.5072105 2.24047649 3.75541204 4.28519811 5.04296875 7.37890625 C5.39423828 8.21744141 5.74550781 9.05597656 6.10742188 9.91992188 C6.46384766 10.79197266 6.82027344 11.66402344 7.1875 12.5625 C7.55552734 13.43841797 7.92355469 14.31433594 8.30273438 15.21679688 C11 21.71725707 11 21.71725707 11 24 C11.99 24.33 12.98 24.66 14 25 C14 25.33 14 25.66 14 26 C10.7 26 7.4 26 4 26 C4.495 24.515 4.495 24.515 5 23 C4.60602665 20.36195411 4.60602665 20.36195411 4 18 C1.03 18 -1.94 18 -5 18 C-5.6878236 20.35367713 -5.6878236 20.35367713 -6 23 C-5.34 23.99 -4.68 24.98 -4 26 C-10.6 26 -17.2 26 -24 26 C-24.33 24.68 -24.66 23.36 -25 22 C-26.60744878 20.24399324 -26.60744878 20.24399324 -28.5625 18.75 C-29.696875 17.8425 -30.83125 16.935 -32 16 C-31.01 19.3 -30.02 22.6 -29 26 C-32.3 26 -35.6 26 -39 26 C-38.34 25.34 -37.68 24.68 -37 24 C-36.72285104 21.86747907 -36.72285104 21.86747907 -36.8046875 19.4296875 C-36.81435547 18.08583984 -36.81435547 18.08583984 -36.82421875 16.71484375 C-36.84935547 15.30912109 -36.84935547 15.30912109 -36.875 13.875 C-36.88853516 12.45767578 -36.88853516 12.45767578 -36.90234375 11.01171875 C-36.92595478 8.67422708 -36.95888484 6.33723877 -37 4 C-37.66 3.67 -38.32 3.34 -39 3 C-39 2.34 -39 1.68 -39 1 C-35.7 1 -32.4 1 -29 1 C-29 1.66 -29 2.32 -29 3 C-29.66 3 -30.32 3 -31 3 C-31 5.64 -31 8.28 -31 11 C-27.04 7.535 -27.04 7.535 -23 4 C-23.33 3.01 -23.66 2.02 -24 1 C-20.7 1 -17.4 1 -14 1 C-14 1.66 -14 2.32 -14 3 C-15.66220581 4.00739746 -17.33020674 5.00522955 -19 6 C-21.39307104 7.9332454 -23.7027145 9.95429043 -26 12 C-20.22552786 20.0493442 -20.22552786 20.0493442 -12.1875 24.3125 C-11.465625 24.209375 -10.74375 24.10625 -10 24 C-9.62875 22.80375 -9.2575 21.6075 -8.875 20.375 C-3.15251196 3.15251196 -3.15251196 3.15251196 0 0 Z M-1 9 C-2.4606285 11.64738916 -3 12.89448334 -3 16 C-1.35 16 0.3 16 2 16 C1.34 13.69 0.68 11.38 0 9 C-0.33 9 -0.66 9 -1 9 Z " fill="#221714" transform="translate(187,7)"/>
<path d="M0 0 C3.3 0 6.6 0 10 0 C10 0.66 10 1.32 10 2 C9.01 2.495 9.01 2.495 8 3 C7.53476937 4.89533342 7.53476937 4.89533342 7.375 7.0625 C7.189375 9.0115625 7.189375 9.0115625 7 11 C10.96 11 14.92 11 19 11 C18.87625 9.700625 18.7525 8.40125 18.625 7.0625 C18.55539063 6.33160156 18.48578125 5.60070312 18.4140625 4.84765625 C18.27742188 4.23792969 18.14078125 3.62820312 18 3 C17.34 2.67 16.68 2.34 16 2 C16 1.34 16 0.68 16 0 C19.63 0 23.26 0 27 0 C27 0.66 27 1.32 27 2 C26.01 2.495 26.01 2.495 25 3 C24.67 9.6 24.34 16.2 24 23 C24.99 23.33 25.98 23.66 27 24 C27 24.33 27 24.66 27 25 C23.37 25 19.74 25 16 25 C16.33 24.34 16.66 23.68 17 23 C17.66 23 18.32 23 19 23 C19 20.03 19 17.06 19 14 C15.04 14 11.08 14 7 14 C7.12375 15.258125 7.2475 16.51625 7.375 17.8125 C7.44460937 18.52019531 7.51421875 19.22789063 7.5859375 19.95703125 C7.92665391 22.29988142 7.92665391 22.29988142 10 25 C6.7 25 3.4 25 0 25 C0.32742187 24.36707031 0.65484375 23.73414062 0.9921875 23.08203125 C2.36144606 18.8946475 2.21471519 15.05939028 2.125 10.6875 C2.11597656 9.85154297 2.10695313 9.01558594 2.09765625 8.15429688 C2.07420989 6.10274031 2.03834266 4.05133223 2 2 C1.34 2 0.68 2 0 2 C0 1.34 0 0.68 0 0 Z " fill="#221714" transform="translate(69,8)"/>
<path d="M0 0 C3.63 0 7.26 0 11 0 C11 0.66 11 1.32 11 2 C10.01 2.495 10.01 2.495 9 3 C9 4.98 9 6.96 9 9 C11.31 7.02 13.62 5.04 16 3 C15.67 2.01 15.34 1.02 15 0 C18.3 0 21.6 0 25 0 C25 0.66 25 1.32 25 2 C23.59317243 2.97138094 22.18023481 3.93538756 20.734375 4.84765625 C17.96969283 6.68455093 15.51847971 8.84130311 13 11 C15.83993793 14.38645519 18.6850082 17.6850082 21.8125 20.8125 C24 23 24 23 25 25 C21.7 25 18.4 25 15 25 C14.67 23.68 14.34 22.36 14 21 C11.52093031 18.2704415 11.52093031 18.2704415 9 16 C8.83322718 19.41656024 8.83322718 19.41656024 9 23 C9.66 23.66 10.32 24.32 11 25 C7.37 25 3.74 25 0 25 C0.66 24.34 1.32 23.68 2 23 C2.27714896 20.86747907 2.27714896 20.86747907 2.1953125 18.4296875 C2.18564453 17.08583984 2.18564453 17.08583984 2.17578125 15.71484375 C2.15064453 14.30912109 2.15064453 14.30912109 2.125 12.875 C2.11146484 11.45767578 2.11146484 11.45767578 2.09765625 10.01171875 C2.07404522 7.67422708 2.04111516 5.33723877 2 3 C1.34 2.67 0.68 2.34 0 2 C0 1.34 0 0.68 0 0 Z " fill="#211714" transform="translate(122,8)"/>
<path d="M0 0 C2.54232342 -0.08152344 5.08199202 -0.14073716 7.625 -0.1875 C8.33785156 -0.21263672 9.05070313 -0.23777344 9.78515625 -0.26367188 C15.39603828 -0.34088585 19.38259401 0.83387091 23.8125 4.5 C26.57352978 7.98761657 26.28744224 11.76022695 26 16 C24.70401321 19.74396183 23.77713388 21.4965215 20.4375 23.66015625 C16.15164957 25.33066386 12.66744274 25.33763158 8.125 25.1875 C6.949375 25.16719727 6.949375 25.16719727 5.75 25.14648438 C3.83303218 25.11141789 1.91642249 25.05762072 0 25 C0.33 24.34 0.66 23.68 1 23 C1.66 23 2.32 23 3 23 C2.67 16.4 2.34 9.8 2 3 C1.34 2.67 0.68 2.34 0 2 C0 1.34 0 0.68 0 0 Z M8 3 C8 9.6 8 16.2 8 23 C14.33071262 23.2512794 14.33071262 23.2512794 19 20 C20.9337325 15.51725647 21.42879889 12.17919695 19.75 7.5625 C17.19171218 3.78421192 17.19171218 3.78421192 13 2.3125 C10.07896094 1.73657162 10.07896094 1.73657162 8 3 Z " fill="#221714" transform="translate(213,8)"/>
<path d="M0 0 C3.25599404 2.44199553 4.94471469 3.77164407 6.25 7.6875 C6.83533357 13.77496909 5.68450434 16.82195219 2.25 21.6875 C-2.12853172 24.50693833 -6.71971778 24.19379464 -11.75 23.6875 C-15.64010137 22.28044206 -16.51845049 21.08113416 -18.625 17.5 C-20.02569922 12.75318597 -19.91115801 10.48695311 -18.75 5.6875 C-14.5822861 -1.15945856 -7.44090679 -3.55134187 0 0 Z M-12.125 3.125 C-14.47801926 6.83553036 -14.96041467 10.32334385 -14.75 14.6875 C-13.18818681 18.357761 -12.09089404 19.4602373 -8.75 21.6875 C-4.96964825 21.60706698 -3.24745405 21.11949957 -0.375 18.625 C1.72501074 14.82882673 1.98827379 11.93686659 1.25 7.6875 C0.09367254 5.32456998 -0.89983755 3.53766245 -2.75 1.6875 C-6.47144545 1.33642024 -8.87919394 1.16043318 -12.125 3.125 Z " fill="#221714" transform="translate(115.75,9.3125)"/>
<path d="M0 0 C3.2186267 2.1213676 4.36898801 3.20652425 5.75 6.8125 C6.37643013 10.97478018 6.75165414 14.96500458 4.6953125 18.7578125 C2.93915512 20.9088455 1.24465426 22.56517287 -1.25 23.8125 C-5.81933999 24.23304103 -9.93104995 24.37375534 -14.1875 22.5625 C-17.02013607 20.15905121 -18.98220613 18.16485905 -19.71875 14.4453125 C-19.7730953 10.08410212 -19.8000512 6.82120613 -17 3.3125 C-11.6160016 -1.582044 -7.08623234 -2.58920028 0 0 Z M-12.6875 3.6875 C-14.8933774 8.09925479 -15.05167217 11.96974565 -14.25 16.8125 C-12.23467021 19.99052006 -10.82438137 20.60474504 -7.3125 21.875 C-4.09098823 22.09662417 -4.09098823 22.09662417 -1.4375 19.8125 C1.14252631 16.2741782 1.67222498 14.16790139 1.75 9.8125 C0.82859242 6.43400555 -0.27455386 3.76193023 -3.25 1.8125 C-7.3475387 1.21649437 -9.36025492 1.12808071 -12.6875 3.6875 Z " fill="#221613" transform="translate(260.25,9.1875)"/>
<path d="M0 0 C3.3 0 6.6 0 10 0 C10 0.66 10 1.32 10 2 C9.01 2.495 9.01 2.495 8 3 C7.94192957 6.10408807 7.90638086 9.2080364 7.875 12.3125 C7.85824219 13.19357422 7.84148437 14.07464844 7.82421875 14.98242188 C7.81777344 15.82998047 7.81132812 16.67753906 7.8046875 17.55078125 C7.79421387 18.33106689 7.78374023 19.11135254 7.77294922 19.9152832 C7.87119141 22.3065848 7.87119141 22.3065848 10 25 C6.7 25 3.4 25 0 25 C0 24.34 0 23.68 0 23 C0.66 23 1.32 23 2 23 C1.86111494 19.72883268 1.71269508 16.458166 1.5625 13.1875 C1.52318359 12.25873047 1.48386719 11.32996094 1.44335938 10.37304688 C1.40146484 9.48037109 1.35957031 8.58769531 1.31640625 7.66796875 C1.27974854 6.84578857 1.24309082 6.0236084 1.20532227 5.17651367 C1.06572228 2.82094822 1.06572228 2.82094822 0 0 Z " fill="#221714" transform="translate(202,8)"/>
<path d="M0 0 C2.1875 -0.375 2.1875 -0.375 5 0 C6.99022836 1.83961648 8.38989899 3.79186148 10 6 C9.67 4.02 9.34 2.04 9 0 C10.65 0 12.3 0 14 0 C13.67 4.62 13.34 9.24 13 14 C7.25 9.375 7.25 9.375 5 6 C4.84850702 9.62885324 4.84850702 9.62885324 6 13 C4.35 13 2.7 13 1 13 C1.33 9.04 1.66 5.08 2 1 C1.34 0.67 0.68 0.34 0 0 Z " fill="#221715" transform="translate(92,39)"/>
<path d="M0 0 C6.8359375 -0.1953125 6.8359375 -0.1953125 9 0 C9.66 0.66 10.32 1.32 11 2 C10.625 3.9375 10.625 3.9375 10 6 C9.84188612 9.05270463 9.84188612 9.05270463 11 12 C11.66 12 12.32 12 13 12 C13 12.66 13 13.32 13 14 C10.6875 13.8125 10.6875 13.8125 8 13 C6.1875 10.4375 6.1875 10.4375 5 8 C5 9.65 5 11.3 5 13 C3.35 13 1.7 13 0 13 C0 8.71 0 4.42 0 0 Z M4 1 C4 2.32 4 3.64 4 5 C5.32 4.67 6.64 4.34 8 4 C7.34 3.01 6.68 2.02 6 1 C5.34 1 4.68 1 4 1 Z " fill="#221613" transform="translate(173,39)"/>
<path d="M0 0 C3.3 0 6.6 0 10 0 C9.67 0.99 9.34 1.98 9 3 C7.68 2.67 6.36 2.34 5 2 C4.67 2.99 4.34 3.98 4 5 C4.99 5 5.98 5 7 5 C7.33 4.34 7.66 3.68 8 3 C8 4.98 8 6.96 8 9 C6.68 8.34 5.36 7.68 4 7 C4 8.32 4 9.64 4 11 C5.65 11 7.3 11 9 11 C9 10.34 9 9.68 9 9 C9.66 9 10.32 9 11 9 C11 10.32 11 11.64 11 13 C7.37 13 3.74 13 0 13 C0 8.71 0 4.42 0 0 Z " fill="#221815" transform="translate(152,39)"/>
<path d="M0 0 C1.98 0 3.96 0 6 0 C5.67 0.66 5.34 1.32 5 2 C4.93049459 3.54023996 4.91547643 5.08334988 4.9375 6.625 C4.94652344 7.44226562 4.95554687 8.25953125 4.96484375 9.1015625 C4.97644531 9.72804688 4.98804687 10.35453125 5 11 C6.32 10.67 7.64 10.34 9 10 C9.93786082 4.94990405 9.93786082 4.94990405 9 0 C10.65 0 12.3 0 14 0 C13.71812064 1.79323253 13.4241719 3.58457126 13.125 5.375 C12.96257812 6.37273438 12.80015625 7.37046875 12.6328125 8.3984375 C12 11 12 11 10 13 C7.0625 13.375 7.0625 13.375 4 13 C0.96175657 10.59035866 0.74026634 7.92069764 0.3125 4.25 C0.19604647 2.83429039 0.08785338 1.41777182 0 0 Z " fill="#211513" transform="translate(71,39)"/>
<path d="M0 0 C0 0.99 0 1.98 0 3 C-0.66 3 -1.32 3 -2 3 C-2 2.34 -2 1.68 -2 1 C-2.66 1.66 -3.32 2.32 -4 3 C-1.525 4.98 -1.525 4.98 1 7 C0.125 11.875 0.125 11.875 -1 13 C-3.33297433 13.04092937 -5.66705225 13.04241723 -8 13 C-7.67 11.68 -7.34 10.36 -7 9 C-4.525 9.99 -4.525 9.99 -2 11 C-3.2065625 9.9171875 -3.2065625 9.9171875 -4.4375 8.8125 C-7.02292072 5.97484311 -7.68042813 4.72833853 -8 1 C-4.93251126 -0.86240388 -3.40254489 -1.2151946 0 0 Z " fill="#221614" transform="translate(203,39)"/>
<path d="M0 0 C1.98 0 3.96 0 6 0 C6.66 1.98 7.32 3.96 8 6 C9.390117 3.09123087 9.390117 3.09123087 10 0 C11.65 0 13.3 0 15 0 C14.01 0.495 14.01 0.495 13 1 C12.15307099 3.22596002 11.53153701 5.48363587 10.87890625 7.7734375 C9.94068882 10.15025499 8.91619938 11.34534316 7 13 C6.16180842 11.37750059 5.3295884 9.75191503 4.5 8.125 C4.0359375 7.22007813 3.571875 6.31515625 3.09375 5.3828125 C2 3 2 3 2 1 C1.34 0.67 0.68 0.34 0 0 Z " fill="#221613" transform="translate(129,39)"/>
<path d="M0 0 C1.98 0 3.96 0 6 0 C6.33 1.32 6.66 2.64 7 4 C7.66 2.68 8.32 1.36 9 0 C10.65 0 12.3 0 14 0 C13.01 0.495 13.01 0.495 12 1 C10.46480159 4.25100839 9.48160933 7.43609096 9 11 C9.33 11.66 9.66 12.32 10 13 C8.02 13 6.04 13 4 13 C4.226875 12.278125 4.45375 11.55625 4.6875 10.8125 C5.08604497 7.22559529 3.97699586 5.92595387 2 3 C2 2.34 2 1.68 2 1 C1.34 0.67 0.68 0.34 0 0 Z " fill="#231613" transform="translate(249,39)"/>
<path d="M0 0 C3.96 0 7.92 0 12 0 C12.33 0.99 12.66 1.98 13 3 C11.35 2.67 9.7 2.34 8 2 C7.979375 3.258125 7.95875 4.51625 7.9375 5.8125 C7.92589844 6.52019531 7.91429687 7.22789063 7.90234375 7.95703125 C7.91736783 10.20305461 7.91736783 10.20305461 9 13 C7.02 13 5.04 13 3 13 C3.33 12.34 3.66 11.68 4 11 C4.06950541 9.45976004 4.08452357 7.91665012 4.0625 6.375 C4.05347656 5.55773438 4.04445312 4.74046875 4.03515625 3.8984375 C4.02355469 3.27195313 4.01195312 2.64546875 4 2 C3.34 1.67 2.68 1.34 2 1 C2 1.66 2 2.32 2 3 C1.34 3 0.68 3 0 3 C0 2.01 0 1.02 0 0 Z " fill="#231613" transform="translate(230,39)"/>
<path d="M0 0 C1.98 0 3.96 0 6 0 C6 4.29 6 8.58 6 13 C4.02 13 2.04 13 0 13 C0.33 12.34 0.66 11.68 1 11 C1.09499503 9.50243129 1.12987198 8.00057068 1.125 6.5 C1.12757812 5.7059375 1.13015625 4.911875 1.1328125 4.09375 C1.13277996 1.94081466 1.13277996 1.94081466 0 0 Z " fill="#231714" transform="translate(115,39)"/>
<path d="M0 0 C1.98 0 3.96 0 6 0 C6 4.29 6 8.58 6 13 C4.02 13 2.04 13 0 13 C0.33 12.34 0.66 11.68 1 11 C1.22622081 9.29636178 1.40888473 7.58671299 1.5625 5.875 C1.64628906 4.96492188 1.73007813 4.05484375 1.81640625 3.1171875 C1.87699219 2.41851562 1.93757812 1.71984375 2 1 C1.34 0.67 0.68 0.34 0 0 Z " fill="#221715" transform="translate(214,39)"/>
<path d="M0 0 C0.66 0.66 1.32 1.32 2 2 C0.71372289 3.17260611 -0.57919783 4.3379283 -1.875 5.5 C-2.59429687 6.1496875 -3.31359375 6.799375 -4.0546875 7.46875 C-6 9 -6 9 -8 9 C-8 8.34 -8 7.68 -8 7 C-6.25 5.2734375 -6.25 5.2734375 -4 3.375 C-3.2575 2.74335937 -2.515 2.11171875 -1.75 1.4609375 C-1.1725 0.97882812 -0.595 0.49671875 0 0 Z " fill="#175B13" transform="translate(47,50)"/>
</svg>
